<svg xmlns="http://www.w3.org/2000/svg" xmlns:xlink="http://www.w3.org/1999/xlink" xmlns:svgjs="http://svgjs.com/svgjs" version="1.1" width="512" height="512" x="0" y="0" viewBox="0 0 512 512" style="enable-background:new 0 0 512 512" xml:space="preserve"><g><g><path d="m509.155 307.211c-1.149-1.59-28.663-39.377-73.179-77.593-26.331-22.605-53.187-40.659-79.821-53.661-33.924-16.56-67.622-24.957-100.155-24.957s-66.23 8.397-100.155 24.958c-26.634 13.002-53.49 31.056-79.821 53.661-44.516 38.216-72.03 76.003-73.18 77.593-3.792 5.246-3.792 12.332 0 17.578 1.15 1.59 28.664 39.376 73.18 77.593 26.331 22.605 53.187 40.659 79.821 53.661 33.925 16.559 67.622 24.956 100.155 24.956s66.23-8.397 100.155-24.958c26.635-13.002 53.49-31.056 79.821-53.661 44.516-38.216 72.029-76.003 73.179-77.593 3.793-5.245 3.793-12.331 0-17.577zm-253.155 143.789c-63.672 0-122.116-38.583-159.933-70.951-29.614-25.347-51.613-51.004-62.093-64.044 25.148-31.242 116.625-135.005 222.026-135.005 63.673 0 122.116 38.583 159.933 70.951 29.612 25.345 51.609 51.001 62.093 64.044-25.148 31.243-116.625 135.005-222.026 135.005z" fill="#000000" data-original="#000000"/><path d="m256 121c8.284 0 15-6.716 15-15v-60c0-8.284-6.716-15-15-15s-15 6.716-15 15v60c0 8.284 6.716 15 15 15z" fill="#000000" data-original="#000000"/><path d="m147.101 131.742c2.628 5.257 7.925 8.295 13.428 8.295 2.254 0 4.543-.51 6.696-1.587 7.41-3.705 10.413-12.715 6.708-20.125l-24.517-49.034c-3.705-7.41-12.715-10.414-20.125-6.708-7.41 3.705-10.413 12.715-6.708 20.125z" fill="#000000" data-original="#000000"/><path d="m344.776 138.45c2.153 1.077 4.442 1.587 6.696 1.587 5.502 0 10.8-3.039 13.428-8.295l24.517-49.034c3.705-7.41.702-16.42-6.708-20.125s-16.419-.701-20.124 6.708l-24.517 49.034c-3.706 7.41-.703 16.42 6.708 20.125z" fill="#000000" data-original="#000000"/><path d="m69.302 180.515c2.929 2.929 6.768 4.393 10.606 4.393s7.678-1.464 10.606-4.393c5.858-5.858 5.858-15.355 0-21.213l-33.908-33.908c-5.857-5.858-15.355-5.858-21.213 0s-5.858 15.355 0 21.213z" fill="#000000" data-original="#000000"/><path d="m432.092 184.908c3.839 0 7.678-1.464 10.606-4.393l33.908-33.908c5.858-5.858 5.858-15.355 0-21.213-5.857-5.858-15.355-5.858-21.213 0l-33.908 33.908c-5.858 5.858-5.858 15.355 0 21.213 2.929 2.929 6.768 4.393 10.607 4.393z" fill="#000000" data-original="#000000"/><path d="m256 211c-57.897 0-105 47.103-105 105s47.103 105 105 105 105-47.103 105-105-47.102-105-105-105zm0 180c-41.355 0-75-33.645-75-75s33.645-75 75-75 75 33.645 75 75-33.644 75-75 75z" fill="#000000" data-original="#000000"/><path d="m256 271c-24.813 0-45 20.187-45 45s20.187 45 45 45 45-20.187 45-45-20.186-45-45-45zm0 60c-8.271 0-15-6.729-15-15s6.729-15 15-15 15 6.729 15 15-6.728 15-15 15z" fill="#000000" data-original="#000000"/></g></g></svg>