<svg xmlns="http://www.w3.org/2000/svg" xmlns:xlink="http://www.w3.org/1999/xlink" xmlns:svgjs="http://svgjs.com/svgjs" version="1.1" width="512" height="512" x="0" y="0" viewBox="0 0 511.856 511.856" style="enable-background:new 0 0 512 512" xml:space="preserve"><g><g><path d="m472.425 75.144c-49.447-49.46-127.981-52.558-181.021-8.841-6.137 5.036-7.494 6.532-35.476 34.556-27.735-27.777-29.302-29.49-35.449-34.534-53.48-44.08-131.971-40.27-181.048 8.819-52.574 52.584-52.575 138.163.001 190.772 60.455 60.452 204.452 204.553 205.682 205.727 5.697 5.686 14.908 6.57 21.825-.177 1.848-1.801 12.198-12.174 22.387-22.374 24.674-24.701 76.018-76.101 183.103-183.18 52.571-52.605 52.57-138.183-.004-190.768zm-411.776 169.562c-40.885-40.91-40.886-107.46-.003-148.351 38.251-38.259 98.75-41.5 140.777-6.859 4.799 3.938 5.177 4.425 33.295 32.58l-69.394 69.392c-5.854 5.853-5.858 15.356 0 21.213l19.583 19.583c17.183 17.183 44.937 17.105 62.041.001l39.172-39.17c5.408-5.408 14.207-5.407 19.615 0l88.886 88.586c5.288 5.288 5.563 13.797.613 18.969-5.182 5.416-13.718 5.501-19.024.194l-65.7-65.4c-5.871-5.844-15.369-5.823-21.213.048-5.845 5.872-5.822 15.369.049 21.213l65.675 65.375c5.175 5.175 5.185 13.604.001 18.787-5.164 5.165-13.544 5.244-18.812-.024l-65.7-65.4c-5.87-5.844-15.368-5.824-21.213.048s-5.822 15.369.049 21.213l65.675 65.375c5.186 5.186 5.174 13.613.001 18.787-3.516 3.515-11.938 6.034-18.317 1.254-7.64-8.098-17.643-12.722-28.333-13.489-1.536-21.387-18.579-38.464-40-40-1.536-21.387-18.578-38.463-40-40-1.608-22.39-20.25-40.126-43.16-40.126-11.562 0-22.434 4.504-30.61 12.681l-18.737 18.736c-11.015-11.015-22.732-22.732-35.216-35.216zm124.563 73.8c11.771 0 17.741 14.329 9.39 22.681l-18.748 18.748c-5.872-5.875-12.125-12.13-18.783-18.791.243-.243 18.864-18.863 18.747-18.747 2.512-2.508 5.847-3.891 9.394-3.891zm40 40c11.908 0 17.674 14.395 9.39 22.681l-18.761 18.761c-5.613-5.618-11.854-11.863-18.78-18.794l18.755-18.754c2.509-2.509 5.847-3.894 9.396-3.894zm40 40.001c11.878 0 17.69 14.379 9.388 22.682l-18.758 18.764-18.797-18.783 18.771-18.77c2.508-2.509 5.847-3.893 9.396-3.893zm-110.61-97.32-18.74 18.74c-5.983-5.984-12.241-12.244-18.785-18.789l18.738-18.737c2.512-2.511 5.849-3.894 9.397-3.894 11.771-.001 17.741 14.329 9.39 22.68zm296.609-56.485c-9.493 9.492-18.539 18.539-27.176 27.176-2.063-4.133-4.798-8.008-8.226-11.435l-88.861-88.562c-17.104-17.105-44.936-17.104-62.041-.001l-39.172 39.171c-5.408 5.407-14.207 5.408-19.615 0l-8.977-8.977c114.863-114.857 107.623-107.928 113.316-112.6 41.84-34.487 102.35-31.529 140.751 6.881 40.883 40.891 40.882 107.441.001 148.347z" fill="#000000" data-original="#000000"/></g></g></svg>